<svg width="795" height="581" viewBox="0 0 795 581" fill="none" xmlns="http://www.w3.org/2000/svg">
<g id="undraw_programming_re_kg9v 1" filter="url(#filter0_d_2_4)">
<g id="Vector" filter="url(#filter1_i_2_4)">
<path d="M434.701 70.4015C449.447 70.4015 461.402 58.4472 461.402 43.7007C461.402 28.9543 449.447 17 434.701 17C419.954 17 408 28.9543 408 43.7007C408 58.4472 419.954 70.4015 434.701 70.4015Z" fill="#FF7A00"/>
</g>
<path id="Vector_2" d="M640.18 481.428C679.868 451.199 698.823 400.402 686.956 351.945C686.661 350.741 686.35 349.54 686.023 348.342C678.155 319.578 658.691 292.241 630.323 283.05C606.503 275.333 580.503 281.267 555.653 278.199C506.872 272.175 469.053 232.705 442.442 191.379C415.831 150.054 395.38 103.796 360.021 69.6553C301.736 13.3799 206.659 1.26378 134.394 37.8948C62.1292 74.526 16.0973 155.795 18.0604 236.79C20.0236 317.785 68.1067 395.222 137.935 436.307C163.588 451.4 193.257 462.092 222.784 458.351C248.404 455.104 271.683 441.338 297.182 437.251C337.273 430.826 377.109 448.952 411.785 470.075C446.461 491.198 479.955 516.235 519.359 526.027C557.621 535.536 605.023 508.206 640.18 481.428Z" fill="#7E3535"/>
<g id="Vector_3" filter="url(#filter2_b_2_4)">
<path d="M612.426 55.32C611.556 54.74 610.676 54.19 609.806 53.63C584.657 37.5457 557.701 24.4791 529.496 14.7L522.956 104.92H481.496V1.52995C478.886 0.989953 476.256 0.479954 473.626 -4.57764e-05V104.92H424.356C397.232 104.92 371.219 94.1451 352.04 74.9658C332.861 55.7865 322.086 29.7737 322.086 2.65007V2.64998C319.446 3.21998 316.826 3.82998 314.206 4.47998V104.92H274.076L267.846 18.89C238.861 30.0063 211.343 44.6247 185.906 62.42C185.466 62.72 185.026 63.03 184.596 63.33C182.386 64.88 180.206 66.46 178.036 68.06V412.25H296.306L294.216 383.3L282.716 224.35H514.306L502.806 383.3L500.716 412.25H617.676V58.8C615.936 57.62 614.186 56.46 612.426 55.32ZM314.206 198.1H280.816L274.646 112.8H314.206V198.1ZM473.626 198.1H417.546V196.41C417.546 195.598 417.386 194.793 417.075 194.043C416.763 193.292 416.307 192.61 415.732 192.036C415.157 191.462 414.475 191.007 413.724 190.697C412.973 190.387 412.168 190.229 411.356 190.23H386.976C386.164 190.23 385.361 190.389 384.611 190.7C383.861 191.01 383.179 191.465 382.605 192.039C382.031 192.613 381.576 193.295 381.266 194.045C380.955 194.795 380.796 195.598 380.796 196.41V198.1H322.086V112.8H473.626V198.1ZM481.496 198.1V112.8H522.386L516.216 198.1H481.496Z" fill="#3F3D56"/>
</g>
<g id="Vector_4" filter="url(#filter3_d_2_4)">
<path d="M3.99997 434.291C12.6872 444.584 22.0835 454.258 32.12 463.241L762.7 464.241C772.736 455.258 782.133 445.584 790.82 435.291L3.99997 434.291Z" fill="#3F3D56"/>
</g>
<path id="Vector_5" d="M499.43 341.591V427.295C499.431 428.387 499.865 429.435 500.637 430.207C501.41 430.979 502.457 431.414 503.549 431.414H630.553C631.646 431.414 632.693 430.979 633.465 430.207C634.237 429.435 634.672 428.387 634.673 427.295V341.591C634.67 340.5 634.235 339.454 633.463 338.683C632.691 337.912 631.645 337.478 630.553 337.477H503.549C502.458 337.478 501.412 337.912 500.639 338.683C499.867 339.454 499.433 340.5 499.43 341.591V341.591Z" fill="#3F3D56"/>
<path id="Vector_6" d="M502.409 342.658V426.238C502.41 426.822 502.643 427.381 503.055 427.794C503.468 428.206 504.027 428.438 504.611 428.439H629.496C630.08 428.438 630.639 428.206 631.052 427.794C631.464 427.381 631.697 426.822 631.698 426.238V342.658C631.698 342.073 631.466 341.513 631.053 341.099C630.64 340.686 630.08 340.453 629.496 340.452H504.611C504.027 340.453 503.467 340.686 503.054 341.099C502.641 341.513 502.409 342.073 502.409 342.658Z" fill="#FF636C"/>
<path id="Vector_7" d="M496.774 444.01C497.006 444.302 497.302 444.537 497.639 444.698C497.975 444.859 498.344 444.942 498.717 444.94H634.709C635.081 444.939 635.448 444.856 635.784 444.696C636.119 444.536 636.415 444.303 636.649 444.014C636.884 443.725 637.051 443.387 637.138 443.026C637.226 442.664 637.232 442.288 637.155 441.924L635.044 431.897C634.957 431.488 634.768 431.107 634.496 430.79C634.224 430.472 633.877 430.228 633.486 430.079C633.203 429.968 632.902 429.911 632.598 429.911H500.82C500.516 429.911 500.215 429.968 499.932 430.079C499.541 430.228 499.194 430.472 498.922 430.79C498.65 431.107 498.461 431.488 498.374 431.897L496.263 441.924C496.188 442.288 496.195 442.664 496.283 443.025C496.371 443.385 496.539 443.722 496.774 444.01V444.01Z" fill="#2F2E41"/>
<path id="Vector_8" d="M627.932 434.23H631.144C631.414 434.23 631.632 434.012 631.632 433.742V432.205C631.632 431.936 631.414 431.717 631.144 431.717H627.932C627.662 431.717 627.444 431.936 627.444 432.205V433.742C627.444 434.012 627.662 434.23 627.932 434.23Z" fill="#3F3D56"/>
<path id="Vector_9" d="M619.555 434.23H622.767C623.037 434.23 623.255 434.012 623.255 433.742V432.205C623.255 431.936 623.037 431.717 622.767 431.717H619.555C619.285 431.717 619.067 431.936 619.067 432.205V433.742C619.067 434.012 619.285 434.23 619.555 434.23Z" fill="#3F3D56"/>
<path id="Vector_10" d="M611.178 434.23H614.39C614.66 434.23 614.878 434.012 614.878 433.742V432.205C614.878 431.936 614.66 431.717 614.39 431.717H611.178C610.908 431.717 610.69 431.936 610.69 432.205V433.742C610.69 434.012 610.908 434.23 611.178 434.23Z" fill="#3F3D56"/>
<path id="Vector_11" d="M602.801 434.23H606.013C606.283 434.23 606.501 434.012 606.501 433.742V432.205C606.501 431.936 606.283 431.717 606.013 431.717H602.801C602.531 431.717 602.313 431.936 602.313 432.205V433.742C602.313 434.012 602.531 434.23 602.801 434.23Z" fill="#3F3D56"/>
<path id="Vector_12" d="M594.424 434.23H597.636C597.906 434.23 598.124 434.012 598.124 433.742V432.205C598.124 431.936 597.906 431.717 597.636 431.717H594.424C594.154 431.717 593.936 431.936 593.936 432.205V433.742C593.936 434.012 594.154 434.23 594.424 434.23Z" fill="#3F3D56"/>
<path id="Vector_13" d="M586.047 434.23H589.259C589.529 434.23 589.747 434.012 589.747 433.742V432.205C589.747 431.936 589.529 431.717 589.259 431.717H586.047C585.777 431.717 585.559 431.936 585.559 432.205V433.742C585.559 434.012 585.777 434.23 586.047 434.23Z" fill="#3F3D56"/>
<path id="Vector_14" d="M577.67 434.23H580.882C581.152 434.23 581.37 434.012 581.37 433.742V432.205C581.37 431.936 581.152 431.717 580.882 431.717H577.67C577.4 431.717 577.182 431.936 577.182 432.205V433.742C577.182 434.012 577.4 434.23 577.67 434.23Z" fill="#3F3D56"/>
<path id="Vector_15" d="M569.293 434.23H572.505C572.775 434.23 572.993 434.012 572.993 433.742V432.205C572.993 431.936 572.775 431.717 572.505 431.717H569.293C569.023 431.717 568.805 431.936 568.805 432.205V433.742C568.805 434.012 569.023 434.23 569.293 434.23Z" fill="#3F3D56"/>
<path id="Vector_16" d="M560.916 434.23H564.128C564.398 434.23 564.616 434.012 564.616 433.742V432.205C564.616 431.936 564.398 431.717 564.128 431.717H560.916C560.647 431.717 560.428 431.936 560.428 432.205V433.742C560.428 434.012 560.647 434.23 560.916 434.23Z" fill="#3F3D56"/>
<path id="Vector_17" d="M552.539 434.23H555.751C556.021 434.23 556.239 434.012 556.239 433.742V432.205C556.239 431.936 556.021 431.717 555.751 431.717H552.539C552.27 431.717 552.051 431.936 552.051 432.205V433.742C552.051 434.012 552.27 434.23 552.539 434.23Z" fill="#3F3D56"/>
<path id="Vector_18" d="M544.162 434.23H547.374C547.644 434.23 547.862 434.012 547.862 433.742V432.205C547.862 431.936 547.644 431.717 547.374 431.717H544.162C543.892 431.717 543.674 431.936 543.674 432.205V433.742C543.674 434.012 543.892 434.23 544.162 434.23Z" fill="#3F3D56"/>
<path id="Vector_19" d="M535.785 434.23H538.997C539.267 434.23 539.485 434.012 539.485 433.742V432.205C539.485 431.936 539.267 431.717 538.997 431.717H535.785C535.516 431.717 535.297 431.936 535.297 432.205V433.742C535.297 434.012 535.516 434.23 535.785 434.23Z" fill="#3F3D56"/>
<path id="Vector_20" d="M527.408 434.23H530.62C530.89 434.23 531.108 434.012 531.108 433.742V432.205C531.108 431.936 530.89 431.717 530.62 431.717H527.408C527.139 431.717 526.92 431.936 526.92 432.205V433.742C526.92 434.012 527.139 434.23 527.408 434.23Z" fill="#3F3D56"/>
<path id="Vector_21" d="M519.031 434.23H522.243C522.513 434.23 522.732 434.012 522.732 433.742V432.205C522.732 431.936 522.513 431.717 522.243 431.717H519.031C518.762 431.717 518.543 431.936 518.543 432.205V433.742C518.543 434.012 518.762 434.23 519.031 434.23Z" fill="#3F3D56"/>
<path id="Vector_22" d="M510.654 434.23H513.866C514.136 434.23 514.355 434.012 514.355 433.742V432.205C514.355 431.936 514.136 431.717 513.866 431.717H510.654C510.385 431.717 510.166 431.936 510.166 432.205V433.742C510.166 434.012 510.385 434.23 510.654 434.23Z" fill="#3F3D56"/>
<path id="Vector_23" d="M502.277 434.23H505.489C505.759 434.23 505.977 434.012 505.977 433.742V432.205C505.977 431.936 505.759 431.717 505.489 431.717H502.277C502.008 431.717 501.789 431.936 501.789 432.205V433.742C501.789 434.012 502.008 434.23 502.277 434.23Z" fill="#3F3D56"/>
<path id="Vector_24" d="M628.031 438.419H631.243C631.513 438.419 631.731 438.2 631.731 437.931V436.394C631.731 436.124 631.513 435.906 631.243 435.906H628.031C627.761 435.906 627.543 436.124 627.543 436.394V437.931C627.543 438.2 627.761 438.419 628.031 438.419Z" fill="#3F3D56"/>
<path id="Vector_25" d="M619.654 438.419H622.866C623.136 438.419 623.354 438.2 623.354 437.931V436.394C623.354 436.124 623.136 435.906 622.866 435.906H619.654C619.384 435.906 619.166 436.124 619.166 436.394V437.931C619.166 438.2 619.384 438.419 619.654 438.419Z" fill="#3F3D56"/>
<path id="Vector_26" d="M611.277 438.419H614.489C614.759 438.419 614.977 438.2 614.977 437.931V436.394C614.977 436.124 614.759 435.906 614.489 435.906H611.277C611.007 435.906 610.789 436.124 610.789 436.394V437.931C610.789 438.2 611.007 438.419 611.277 438.419Z" fill="#3F3D56"/>
<path id="Vector_27" d="M602.9 438.419H606.112C606.382 438.419 606.6 438.2 606.6 437.931V436.394C606.6 436.124 606.382 435.906 606.112 435.906H602.9C602.63 435.906 602.412 436.124 602.412 436.394V437.931C602.412 438.2 602.63 438.419 602.9 438.419Z" fill="#3F3D56"/>
<path id="Vector_28" d="M594.523 438.419H597.735C598.005 438.419 598.223 438.2 598.223 437.931V436.394C598.223 436.124 598.005 435.906 597.735 435.906H594.523C594.253 435.906 594.035 436.124 594.035 436.394V437.931C594.035 438.2 594.253 438.419 594.523 438.419Z" fill="#3F3D56"/>
<path id="Vector_29" d="M586.146 438.419H589.358C589.628 438.419 589.846 438.2 589.846 437.931V436.394C589.846 436.124 589.628 435.906 589.358 435.906H586.146C585.876 435.906 585.658 436.124 585.658 436.394V437.931C585.658 438.2 585.876 438.419 586.146 438.419Z" fill="#3F3D56"/>
<path id="Vector_30" d="M577.769 438.419H580.981C581.251 438.419 581.469 438.2 581.469 437.931V436.394C581.469 436.124 581.251 435.906 580.981 435.906H577.769C577.499 435.906 577.281 436.124 577.281 436.394V437.931C577.281 438.2 577.499 438.419 577.769 438.419Z" fill="#3F3D56"/>
<path id="Vector_31" d="M569.392 438.419H572.604C572.874 438.419 573.092 438.2 573.092 437.931V436.394C573.092 436.124 572.874 435.906 572.604 435.906H569.392C569.122 435.906 568.904 436.124 568.904 436.394V437.931C568.904 438.2 569.122 438.419 569.392 438.419Z" fill="#3F3D56"/>
<path id="Vector_32" d="M561.015 438.419H564.227C564.497 438.419 564.715 438.2 564.715 437.931V436.394C564.715 436.124 564.497 435.906 564.227 435.906H561.015C560.745 435.906 560.527 436.124 560.527 436.394V437.931C560.527 438.2 560.745 438.419 561.015 438.419Z" fill="#3F3D56"/>
<path id="Vector_33" d="M552.638 438.419H555.85C556.12 438.419 556.338 438.2 556.338 437.931V436.394C556.338 436.124 556.12 435.906 555.85 435.906H552.638C552.369 435.906 552.15 436.124 552.15 436.394V437.931C552.15 438.2 552.369 438.419 552.638 438.419Z" fill="#3F3D56"/>
<path id="Vector_34" d="M544.261 438.419H547.473C547.743 438.419 547.961 438.2 547.961 437.931V436.394C547.961 436.124 547.743 435.906 547.473 435.906H544.261C543.991 435.906 543.773 436.124 543.773 436.394V437.931C543.773 438.2 543.991 438.419 544.261 438.419Z" fill="#3F3D56"/>
<path id="Vector_35" d="M535.884 438.419H539.096C539.366 438.419 539.584 438.2 539.584 437.931V436.394C539.584 436.124 539.366 435.906 539.096 435.906H535.884C535.615 435.906 535.396 436.124 535.396 436.394V437.931C535.396 438.2 535.615 438.419 535.884 438.419Z" fill="#3F3D56"/>
<path id="Vector_36" d="M527.507 438.419H530.719C530.989 438.419 531.207 438.2 531.207 437.931V436.394C531.207 436.124 530.989 435.906 530.719 435.906H527.507C527.238 435.906 527.019 436.124 527.019 436.394V437.931C527.019 438.2 527.238 438.419 527.507 438.419Z" fill="#3F3D56"/>
<path id="Vector_37" d="M519.13 438.419H522.342C522.612 438.419 522.831 438.2 522.831 437.931V436.394C522.831 436.124 522.612 435.906 522.342 435.906H519.13C518.861 435.906 518.642 436.124 518.642 436.394V437.931C518.642 438.2 518.861 438.419 519.13 438.419Z" fill="#3F3D56"/>
<path id="Vector_38" d="M510.753 438.419H513.965C514.235 438.419 514.453 438.2 514.453 437.931V436.394C514.453 436.124 514.235 435.906 513.965 435.906H510.753C510.484 435.906 510.265 436.124 510.265 436.394V437.931C510.265 438.2 510.484 438.419 510.753 438.419Z" fill="#3F3D56"/>
<path id="Vector_39" d="M502.376 438.419H505.588C505.858 438.419 506.077 438.2 506.077 437.931V436.394C506.077 436.124 505.858 435.906 505.588 435.906H502.376C502.107 435.906 501.888 436.124 501.888 436.394V437.931C501.888 438.2 502.107 438.419 502.376 438.419Z" fill="#3F3D56"/>
<path id="Vector_40" d="M558.502 443.445H591.034C591.303 443.445 591.522 443.226 591.522 442.957V441.42C591.522 441.151 591.303 440.932 591.034 440.932H558.502C558.232 440.932 558.014 441.151 558.014 441.42V442.957C558.014 443.226 558.232 443.445 558.502 443.445Z" fill="#3F3D56"/>
<path id="Vector_41" d="M524.036 358.737H521.192C520.33 358.737 519.631 359.436 519.631 360.298C519.631 361.16 520.33 361.859 521.192 361.859H524.036C524.898 361.859 525.597 361.16 525.597 360.298C525.597 359.436 524.898 358.737 524.036 358.737Z" fill="white"/>
<path id="Vector_42" d="M556.559 358.737H553.715C552.853 358.737 552.154 359.436 552.154 360.298C552.154 361.16 552.853 361.859 553.715 361.859H556.559C557.421 361.859 558.12 361.16 558.12 360.298C558.12 359.436 557.421 358.737 556.559 358.737Z" fill="white"/>
<path id="Vector_43" d="M565.774 358.737H562.93C562.068 358.737 561.369 359.436 561.369 360.298C561.369 361.16 562.068 361.859 562.93 361.859H565.774C566.636 361.859 567.335 361.16 567.335 360.298C567.335 359.436 566.636 358.737 565.774 358.737Z" fill="white"/>
<path id="Vector_44" d="M547.712 358.477H530.039C529.176 358.477 528.477 359.176 528.477 360.038C528.477 360.9 529.176 361.599 530.039 361.599H547.712C548.575 361.599 549.274 360.9 549.274 360.038C549.274 359.176 548.575 358.477 547.712 358.477Z" fill="white"/>
<path id="Vector_45" d="M591.076 358.477H573.403C572.54 358.477 571.841 359.176 571.841 360.038C571.841 360.9 572.54 361.599 573.403 361.599H591.076C591.939 361.599 592.638 360.9 592.638 360.038C592.638 359.176 591.939 358.477 591.076 358.477Z" fill="white"/>
<path id="Vector_46" d="M532.709 365.784H529.865C529.003 365.784 528.304 366.483 528.304 367.345C528.304 368.207 529.003 368.906 529.865 368.906H532.709C533.571 368.906 534.27 368.207 534.27 367.345C534.27 366.483 533.571 365.784 532.709 365.784Z" fill="white"/>
<path id="Vector_47" d="M565.232 365.784H562.388C561.526 365.784 560.827 366.483 560.827 367.345C560.827 368.207 561.526 368.906 562.388 368.906H565.232C566.094 368.906 566.793 368.207 566.793 367.345C566.793 366.483 566.094 365.784 565.232 365.784Z" fill="white"/>
<path id="Vector_48" d="M574.446 365.784H571.603C570.741 365.784 570.042 366.483 570.042 367.345C570.042 368.207 570.741 368.906 571.603 368.906H574.446C575.309 368.906 576.008 368.207 576.008 367.345C576.008 366.483 575.309 365.784 574.446 365.784Z" fill="white"/>
<path id="Vector_49" d="M556.385 365.523H538.711C537.849 365.523 537.15 366.222 537.15 367.085C537.15 367.947 537.849 368.646 538.711 368.646H556.385C557.247 368.646 557.946 367.947 557.946 367.085C557.946 366.222 557.247 365.523 556.385 365.523Z" fill="white"/>
<path id="Vector_50" d="M599.749 365.523H582.075C581.213 365.523 580.514 366.222 580.514 367.085C580.514 367.947 581.213 368.646 582.075 368.646H599.749C600.611 368.646 601.31 367.947 601.31 367.085C601.31 366.222 600.611 365.523 599.749 365.523Z" fill="white"/>
<path id="Vector_51" d="M541.381 372.83H538.538C537.676 372.83 536.977 373.529 536.977 374.391C536.977 375.254 537.676 375.953 538.538 375.953H541.381C542.244 375.953 542.943 375.254 542.943 374.391C542.943 373.529 542.244 372.83 541.381 372.83Z" fill="white"/>
<path id="Vector_52" d="M573.904 372.83H571.061C570.199 372.83 569.5 373.529 569.5 374.391C569.5 375.254 570.199 375.953 571.061 375.953H573.904C574.767 375.953 575.466 375.254 575.466 374.391C575.466 373.529 574.767 372.83 573.904 372.83Z" fill="white"/>
<path id="Vector_53" d="M583.119 372.83H580.276C579.413 372.83 578.715 373.529 578.715 374.391C578.715 375.254 579.413 375.953 580.276 375.953H583.119C583.981 375.953 584.68 375.254 584.68 374.391C584.68 373.529 583.981 372.83 583.119 372.83Z" fill="white"/>
<path id="Vector_54" d="M565.058 372.57H547.384C546.522 372.57 545.823 373.269 545.823 374.131C545.823 374.993 546.522 375.692 547.384 375.692H565.058C565.92 375.692 566.619 374.993 566.619 374.131C566.619 373.269 565.92 372.57 565.058 372.57Z" fill="white"/>
<path id="Vector_55" d="M608.422 372.57H590.748C589.886 372.57 589.187 373.269 589.187 374.131C589.187 374.993 589.886 375.692 590.748 375.692H608.422C609.284 375.692 609.983 374.993 609.983 374.131C609.983 373.269 609.284 372.57 608.422 372.57Z" fill="white"/>
<path id="Vector_56" d="M550.054 379.877H547.211C546.348 379.877 545.649 380.576 545.649 381.438C545.649 382.3 546.348 382.999 547.211 382.999H550.054C550.916 382.999 551.615 382.3 551.615 381.438C551.615 380.576 550.916 379.877 550.054 379.877Z" fill="white"/>
<path id="Vector_57" d="M582.577 379.877H579.734C578.871 379.877 578.172 380.576 578.172 381.438C578.172 382.3 578.871 382.999 579.734 382.999H582.577C583.439 382.999 584.138 382.3 584.138 381.438C584.138 380.576 583.439 379.877 582.577 379.877Z" fill="white"/>
<path id="Vector_58" d="M591.792 379.877H588.948C588.086 379.877 587.387 380.576 587.387 381.438C587.387 382.3 588.086 382.999 588.948 382.999H591.792C592.654 382.999 593.353 382.3 593.353 381.438C593.353 380.576 592.654 379.877 591.792 379.877Z" fill="white"/>
<path id="Vector_59" d="M573.731 379.617H556.057C555.195 379.617 554.496 380.316 554.496 381.178C554.496 382.04 555.195 382.739 556.057 382.739H573.731C574.593 382.739 575.292 382.04 575.292 381.178C575.292 380.316 574.593 379.617 573.731 379.617Z" fill="white"/>
<path id="Vector_60" d="M556.559 407.898H553.715C552.853 407.898 552.154 408.596 552.154 409.459C552.154 410.321 552.853 411.02 553.715 411.02H556.559C557.421 411.02 558.12 410.321 558.12 409.459C558.12 408.596 557.421 407.898 556.559 407.898Z" fill="white"/>
<path id="Vector_61" d="M565.774 407.898H562.93C562.068 407.898 561.369 408.596 561.369 409.459C561.369 410.321 562.068 411.02 562.93 411.02H565.774C566.636 411.02 567.335 410.321 567.335 409.459C567.335 408.596 566.636 407.898 565.774 407.898Z" fill="white"/>
<path id="Vector_62" d="M591.076 408.158H573.403C572.54 408.158 571.841 408.857 571.841 409.719C571.841 410.581 572.54 411.28 573.403 411.28H591.076C591.939 411.28 592.638 410.581 592.638 409.719C592.638 408.857 591.939 408.158 591.076 408.158Z" fill="white"/>
<path id="Vector_63" d="M524.036 407.898H521.192C520.33 407.898 519.631 408.596 519.631 409.459C519.631 410.321 520.33 411.02 521.192 411.02H524.036C524.898 411.02 525.597 410.321 525.597 409.459C525.597 408.596 524.898 407.898 524.036 407.898Z" fill="white"/>
<path id="Vector_64" d="M547.712 408.158H530.039C529.176 408.158 528.477 408.857 528.477 409.719C528.477 410.581 529.176 411.28 530.039 411.28H547.712C548.575 411.28 549.274 410.581 549.274 409.719C549.274 408.857 548.575 408.158 547.712 408.158Z" fill="white"/>
<path id="Vector_65" d="M532.709 400.851H529.865C529.003 400.851 528.304 401.55 528.304 402.412C528.304 403.274 529.003 403.973 529.865 403.973H532.709C533.571 403.973 534.27 403.274 534.27 402.412C534.27 401.55 533.571 400.851 532.709 400.851Z" fill="white"/>
<path id="Vector_66" d="M565.232 400.851H562.388C561.526 400.851 560.827 401.55 560.827 402.412C560.827 403.274 561.526 403.973 562.388 403.973H565.232C566.094 403.973 566.793 403.274 566.793 402.412C566.793 401.55 566.094 400.851 565.232 400.851Z" fill="white"/>
<path id="Vector_67" d="M574.446 400.851H571.603C570.741 400.851 570.042 401.55 570.042 402.412C570.042 403.274 570.741 403.973 571.603 403.973H574.446C575.309 403.973 576.008 403.274 576.008 402.412C576.008 401.55 575.309 400.851 574.446 400.851Z" fill="white"/>
<path id="Vector_68" d="M556.385 401.111H538.711C537.849 401.111 537.15 401.81 537.15 402.672C537.15 403.534 537.849 404.233 538.711 404.233H556.385C557.247 404.233 557.946 403.534 557.946 402.672C557.946 401.81 557.247 401.111 556.385 401.111Z" fill="white"/>
<path id="Vector_69" d="M541.381 393.804H538.538C537.676 393.804 536.977 394.503 536.977 395.365C536.977 396.227 537.676 396.926 538.538 396.926H541.381C542.244 396.926 542.943 396.227 542.943 395.365C542.943 394.503 542.244 393.804 541.381 393.804Z" fill="white"/>
<path id="Vector_70" d="M573.904 393.804H571.061C570.199 393.804 569.5 394.503 569.5 395.365C569.5 396.227 570.199 396.926 571.061 396.926H573.904C574.767 396.926 575.466 396.227 575.466 395.365C575.466 394.503 574.767 393.804 573.904 393.804Z" fill="white"/>
<path id="Vector_71" d="M583.119 393.804H580.276C579.413 393.804 578.715 394.503 578.715 395.365C578.715 396.227 579.413 396.926 580.276 396.926H583.119C583.981 396.926 584.68 396.227 584.68 395.365C584.68 394.503 583.981 393.804 583.119 393.804Z" fill="white"/>
<path id="Vector_72" d="M565.058 394.064H547.384C546.522 394.064 545.823 394.763 545.823 395.626C545.823 396.488 546.522 397.187 547.384 397.187H565.058C565.92 397.187 566.619 396.488 566.619 395.626C566.619 394.763 565.92 394.064 565.058 394.064Z" fill="white"/>
<path id="Vector_73" d="M550.054 386.758H547.211C546.348 386.758 545.649 387.456 545.649 388.319C545.649 389.181 546.348 389.88 547.211 389.88H550.054C550.916 389.88 551.615 389.181 551.615 388.319C551.615 387.456 550.916 386.758 550.054 386.758Z" fill="white"/>
<path id="Vector_74" d="M582.577 386.758H579.734C578.871 386.758 578.172 387.456 578.172 388.319C578.172 389.181 578.871 389.88 579.734 389.88H582.577C583.439 389.88 584.138 389.181 584.138 388.319C584.138 387.456 583.439 386.758 582.577 386.758Z" fill="white"/>
<path id="Vector_75" d="M591.792 386.758H588.948C588.086 386.758 587.387 387.456 587.387 388.319C587.387 389.181 588.086 389.88 588.948 389.88H591.792C592.654 389.88 593.353 389.181 593.353 388.319C593.353 387.456 592.654 386.758 591.792 386.758Z" fill="white"/>
<path id="Vector_76" d="M573.731 387.018H556.057C555.195 387.018 554.496 387.717 554.496 388.579C554.496 389.441 555.195 390.14 556.057 390.14H573.731C574.593 390.14 575.292 389.441 575.292 388.579C575.292 387.717 574.593 387.018 573.731 387.018Z" fill="white"/>
<path id="Vector_77" d="M508.917 490.482L495.568 469.38L537.47 435.977L554.765 416.816C557.012 414.327 559.873 412.471 563.062 411.433C566.251 410.396 569.657 410.214 572.938 410.905C576.22 411.596 579.262 413.136 581.762 415.372C584.262 417.607 586.131 420.46 587.183 423.644C588.742 428.363 588.407 433.502 586.248 437.979C584.089 442.455 580.276 445.917 575.613 447.635L548.264 457.71L508.917 490.482Z" fill="#FFB6B6"/>
<path id="Vector_78" d="M195.69 337.481V440.041H267.54V337.481C267.541 336.743 267.306 336.025 266.868 335.431C266.431 334.837 265.815 334.399 265.11 334.181C264.778 334.071 264.43 334.017 264.08 334.021H199.16C198.705 334.02 198.254 334.109 197.833 334.282C197.413 334.456 197.03 334.71 196.708 335.032C196.386 335.353 196.13 335.735 195.955 336.155C195.781 336.575 195.69 337.026 195.69 337.481V337.481ZM223.73 372.721C223.749 370.699 224.565 368.766 226.001 367.343C227.438 365.92 229.378 365.122 231.4 365.122C233.422 365.122 235.362 365.92 236.798 367.343C238.235 368.766 239.051 370.699 239.07 372.721V384.621C239.06 386.648 238.247 388.589 236.81 390.019C235.372 391.449 233.427 392.252 231.4 392.252C229.373 392.252 227.428 391.449 225.99 390.019C224.553 388.589 223.74 386.648 223.73 384.621V372.721Z" fill="#2F2E41"/>
<path id="Vector_79" d="M195.47 436.761V446.651C195.472 447.163 195.675 447.654 196.036 448.017C196.398 448.381 196.888 448.587 197.4 448.591H265.83C266.343 448.588 266.834 448.383 267.195 448.019C267.557 447.656 267.76 447.164 267.76 446.651V436.761H195.47Z" fill="#3F3D56"/>
<path id="Vector_80" d="M82.66 182.961V370.221C82.6619 372.607 83.6107 374.895 85.2981 376.583C86.9855 378.27 89.2736 379.219 91.66 379.221H369.16C371.546 379.219 373.834 378.27 375.522 376.583C377.209 374.895 378.158 372.607 378.16 370.221V182.961C378.154 180.577 377.204 178.292 375.517 176.607C373.83 174.922 371.544 173.974 369.16 173.971H91.66C89.2757 173.974 86.9898 174.922 85.3029 176.607C83.616 178.292 82.6657 180.577 82.66 182.961Z" fill="#3F3D56"/>
<path id="Vector_81" d="M89.17 185.291V367.911C89.1722 369.186 89.6796 370.408 90.5812 371.31C91.4828 372.211 92.705 372.719 93.98 372.721H366.85C368.125 372.719 369.347 372.211 370.249 371.31C371.15 370.408 371.658 369.186 371.66 367.911V185.291C371.66 184.014 371.153 182.79 370.252 181.886C369.35 180.983 368.127 180.474 366.85 180.471H93.98C92.7034 180.474 91.4801 180.983 90.5783 181.886C89.6766 182.79 89.1701 184.014 89.17 185.291Z" fill="#D5C8C8"/>
<path id="Vector_82" d="M139.81 447.921C140.088 448.269 140.441 448.55 140.843 448.742C141.244 448.934 141.685 449.033 142.13 449.031H304.47C304.914 449.03 305.352 448.931 305.753 448.74C306.154 448.548 306.507 448.27 306.786 447.925C307.066 447.581 307.265 447.178 307.37 446.746C307.474 446.315 307.481 445.865 307.39 445.431L304.87 433.461C304.766 432.973 304.541 432.518 304.216 432.139C303.891 431.76 303.476 431.469 303.01 431.291C302.672 431.158 302.313 431.09 301.95 431.091H144.64C144.277 431.09 143.918 431.158 143.58 431.291C143.114 431.469 142.699 431.76 142.374 432.139C142.049 432.518 141.824 432.973 141.72 433.461L139.2 445.431C139.11 445.865 139.119 446.314 139.224 446.745C139.33 447.175 139.53 447.577 139.81 447.921Z" fill="#2F2E41"/>
<path id="Vector_83" d="M357.995 205.628H102.671C102.406 205.622 102.153 205.512 101.968 205.322C101.782 205.133 101.678 204.878 101.678 204.612C101.678 204.347 101.782 204.092 101.968 203.902C102.153 203.712 102.406 203.603 102.671 203.597H357.995C358.26 203.603 358.512 203.712 358.698 203.902C358.884 204.092 358.988 204.347 358.988 204.612C358.988 204.878 358.884 205.133 358.698 205.322C358.512 205.512 358.26 205.622 357.995 205.628V205.628Z" fill="#3F3D56"/>
<path id="Vector_84" d="M120.051 198.413C123.338 198.413 126.002 195.689 126.002 192.33C126.002 188.97 123.338 186.247 120.051 186.247C116.765 186.247 114.101 188.97 114.101 192.33C114.101 195.689 116.765 198.413 120.051 198.413Z" fill="#EB3912"/>
<path id="Vector_85" d="M140.607 198.413C143.894 198.413 146.558 195.689 146.558 192.33C146.558 188.97 143.894 186.247 140.607 186.247C137.321 186.247 134.657 188.97 134.657 192.33C134.657 195.689 137.321 198.413 140.607 198.413Z" fill="#E77E1E"/>
<path id="Vector_86" d="M161.163 198.413C164.45 198.413 167.114 195.689 167.114 192.33C167.114 188.97 164.45 186.247 161.163 186.247C157.877 186.247 155.213 188.97 155.213 192.33C155.213 195.689 157.877 198.413 161.163 198.413Z" fill="#0EBB68"/>
<path id="Vector_87" d="M345.616 187.751H331.016C330.728 187.758 330.453 187.877 330.251 188.083C330.05 188.29 329.937 188.567 329.937 188.856C329.937 189.145 330.05 189.422 330.251 189.628C330.453 189.835 330.728 189.954 331.016 189.961H345.616C345.907 189.957 346.184 189.839 346.388 189.632C346.592 189.425 346.706 189.146 346.706 188.856C346.706 188.565 346.592 188.287 346.388 188.08C346.184 187.873 345.907 187.755 345.616 187.751Z" fill="#3F3D56"/>
<path id="Vector_88" d="M345.616 191.901H331.016C330.728 191.907 330.453 192.027 330.251 192.233C330.049 192.44 329.935 192.717 329.935 193.006C329.935 193.295 330.049 193.572 330.251 193.779C330.453 193.985 330.728 194.104 331.016 194.111H345.616C345.907 194.107 346.185 193.989 346.389 193.783C346.594 193.576 346.708 193.297 346.708 193.006C346.708 192.715 346.594 192.436 346.389 192.229C346.185 192.022 345.907 191.904 345.616 191.901V191.901Z" fill="#3F3D56"/>
<path id="Vector_89" d="M345.616 196.051H331.016C330.728 196.058 330.453 196.177 330.251 196.383C330.05 196.59 329.937 196.867 329.937 197.156C329.937 197.445 330.05 197.722 330.251 197.928C330.453 198.135 330.728 198.254 331.016 198.261H345.616C345.907 198.257 346.184 198.138 346.388 197.932C346.592 197.725 346.706 197.446 346.706 197.156C346.706 196.865 346.592 196.587 346.388 196.38C346.184 196.173 345.907 196.055 345.616 196.051V196.051Z" fill="#3F3D56"/>
<path id="Vector_90" d="M697.596 441.101C698.036 442.384 698.872 443.494 699.983 444.272C701.094 445.05 702.423 445.457 703.779 445.432L730.271 444.75C731.637 444.724 732.957 444.256 734.035 443.417C735.114 442.577 735.891 441.411 736.252 440.094L740 400.006C741.33 400.609 742.778 400.906 744.238 400.877C745.507 400.845 746.756 400.564 747.916 400.049C749.076 399.534 750.122 398.796 750.997 397.877C751.871 396.957 752.556 395.875 753.012 394.691C753.468 393.507 753.686 392.245 753.654 390.976C753.622 389.708 753.341 388.458 752.826 387.299C752.311 386.139 751.573 385.092 750.654 384.218C749.735 383.344 748.652 382.659 747.468 382.203C746.284 381.747 745.022 381.529 743.753 381.56C743.17 381.559 742.588 381.619 742.017 381.741C741.397 381.07 740.642 380.536 739.803 380.173C738.963 379.811 738.057 379.629 737.143 379.638L696.393 380.69C696.055 380.703 695.718 380.745 695.388 380.815C694.494 380.982 693.646 381.338 692.902 381.859C692.157 382.381 691.533 383.056 691.071 383.839C690.61 384.622 690.321 385.495 690.225 386.399C690.129 387.303 690.228 388.217 690.514 389.08L697.596 441.101ZM740.769 397.284L743.437 387.732C743.74 386.628 743.747 385.464 743.457 384.357C743.587 384.357 743.701 384.295 743.83 384.295C745.659 384.257 747.429 384.946 748.751 386.211C750.073 387.476 750.839 389.213 750.882 391.042C750.925 392.871 750.24 394.643 748.979 395.968C747.718 397.293 745.983 398.064 744.154 398.112C742.971 398.149 741.801 397.863 740.769 397.284Z" fill="#2F2E41"/>
<path id="Vector_91" d="M695.388 380.815C696.256 385.779 706.017 389.269 717.753 388.662C728.546 388.165 737.371 384.375 738.988 379.884C738.389 379.707 737.767 379.624 737.143 379.638L696.393 380.69C696.055 380.703 695.718 380.745 695.388 380.815V380.815Z" fill="#3F3D56"/>
<path id="Vector_92" d="M719.904 419.073C719.958 419.059 720.009 419.037 720.055 419.007L725.808 415.241C725.878 415.196 725.935 415.134 725.975 415.061C726.014 414.988 726.035 414.906 726.035 414.823C726.035 414.74 726.014 414.658 725.975 414.585C725.935 414.512 725.878 414.45 725.809 414.405L719.829 410.488C719.774 410.452 719.713 410.427 719.648 410.414C719.583 410.402 719.517 410.402 719.452 410.415C719.388 410.429 719.327 410.454 719.272 410.491C719.218 410.528 719.171 410.576 719.135 410.631C719.099 410.686 719.074 410.747 719.062 410.812C719.05 410.877 719.051 410.943 719.064 411.008C719.078 411.072 719.104 411.133 719.141 411.187C719.178 411.242 719.226 411.288 719.281 411.324L724.622 414.822L719.508 418.17C719.409 418.235 719.336 418.333 719.302 418.446C719.269 418.559 719.276 418.681 719.324 418.789C719.371 418.898 719.456 418.986 719.562 419.038C719.668 419.089 719.79 419.102 719.904 419.073H719.904Z" fill="#6C63FF"/>
<path id="Vector_93" d="M710.818 419.492C710.914 419.468 711.001 419.415 711.068 419.341C711.134 419.266 711.177 419.174 711.19 419.075C711.204 418.977 711.188 418.876 711.144 418.787C711.1 418.697 711.03 418.623 710.944 418.574L705.641 415.533L710.766 411.726C710.819 411.687 710.863 411.638 710.897 411.582C710.931 411.525 710.953 411.463 710.963 411.398C710.972 411.333 710.969 411.267 710.953 411.203C710.937 411.14 710.908 411.08 710.869 411.027C710.83 410.974 710.781 410.93 710.725 410.896C710.668 410.863 710.606 410.84 710.541 410.831C710.476 410.821 710.41 410.825 710.346 410.841C710.283 410.857 710.223 410.885 710.17 410.924L704.432 415.187C704.365 415.236 704.312 415.301 704.276 415.377C704.241 415.452 704.225 415.535 704.23 415.617C704.235 415.7 704.261 415.781 704.304 415.851C704.348 415.922 704.409 415.98 704.481 416.021L710.446 419.441C710.559 419.506 710.692 419.524 710.818 419.492V419.492Z" fill="#6C63FF"/>
<path id="Vector_94" d="M719.332 422.373C719.381 422.361 719.427 422.341 719.469 422.315C719.525 422.281 719.574 422.236 719.613 422.183C719.652 422.13 719.68 422.07 719.695 422.006C719.711 421.942 719.714 421.876 719.704 421.811C719.694 421.746 719.671 421.684 719.637 421.628L711.481 408.22C711.412 408.107 711.301 408.026 711.172 407.994C711.043 407.963 710.907 407.985 710.794 408.054C710.681 408.122 710.6 408.233 710.568 408.362C710.537 408.491 710.558 408.627 710.627 408.74L718.782 422.149C718.838 422.24 718.921 422.311 719.02 422.351C719.119 422.392 719.229 422.399 719.332 422.373Z" fill="#6C63FF"/>
<path id="Vector_95" d="M260.84 260.827H216.649C214.846 260.827 213.385 262.289 213.385 264.091V268.409C213.385 270.211 214.846 271.673 216.649 271.673H260.84C262.642 271.673 264.104 270.211 264.104 268.409V264.091C264.104 262.289 262.642 260.827 260.84 260.827Z" fill="#6C63FF"/>
<path id="Vector_96" d="M286.598 282.519H190.89C189.087 282.519 187.626 283.98 187.626 285.783V290.1C187.626 291.903 189.087 293.364 190.89 293.364H286.598C288.401 293.364 289.862 291.903 289.862 290.1V285.783C289.862 283.98 288.401 282.519 286.598 282.519Z" fill="#E6E6E6"/>
<path id="Vector_97" d="M286.598 304.21H190.89C189.087 304.21 187.626 305.671 187.626 307.474V311.791C187.626 313.594 189.087 315.056 190.89 315.056H286.598C288.401 315.056 289.862 313.594 289.862 311.791V307.474C289.862 305.671 288.401 304.21 286.598 304.21Z" fill="#E6E6E6"/>
<g id="Vector_98" filter="url(#filter4_i_2_4)">
<path d="M294.711 376.846L294.928 377.53L294.939 377.553L301.465 397.391L308.971 420.252L323.094 463.213L323.23 469.887V469.91L324.28 523.594L321.371 530.872L324.645 542.805C324.645 542.805 323.139 524.768 315.062 535.126C310.488 541.012 305.138 547.035 300.746 552.682C307.146 555.272 313.648 557.614 320.253 559.709C321.679 560.166 323.116 560.599 324.554 561.033C324.862 561.124 325.17 561.215 325.478 561.306C347.372 567.781 370.008 571.42 392.829 572.132C394.015 572.167 395.179 572.189 396.308 572.212C396.707 572.224 397.095 572.235 397.483 572.235C398.761 572.246 400.027 572.258 401.304 572.258C403.883 572.258 406.449 572.22 409.005 572.144C427.918 571.611 446.721 569.068 465.096 564.558C464.971 556.972 464.628 548.108 464.138 538.639C463.91 533.996 458.788 528.966 458.48 524.106C458.263 520.456 462.86 517.022 462.621 513.314C461.069 490.488 459.13 499.25 457.693 483.086C457.544 481.5 457.407 479.983 457.282 478.534C456.358 468.153 455.719 461.662 455.719 461.662L461.856 422.979L471.496 362.244L470.754 361.023L469.922 360.613L419.078 335.447L416.317 328.375C415.513 326.337 414.117 324.587 412.31 323.349C410.502 322.111 408.366 321.441 406.176 321.427L372.683 321.291C370.944 321.283 369.229 321.689 367.68 322.477C366.131 323.265 364.791 324.411 363.773 325.819L354.704 338.379L294.711 376.846Z" fill="#39374E"/>
</g>
<path id="Vector_99" d="M330.817 453.654L323.23 469.887L318.051 480.975L309.142 527.621L304.682 532.355L300.86 515.596L260.862 524.477C259.55 517.187 260.511 524.723 259.701 516.727C259.929 516.499 260.169 516.27 260.408 516.042C261.047 515.449 261.583 514.89 261.572 514.354C261.116 486.77 262.485 439.828 273.915 411.388C275.705 406.745 278.066 402.342 280.942 398.281C281.17 397.973 281.387 397.665 281.604 397.357C286.874 389.976 290.205 382.709 294.928 377.542V377.53C294.957 377.507 294.984 377.48 295.008 377.45C295.025 377.442 295.04 377.43 295.053 377.416L327.497 360.213L328.889 399.319L329.881 427.427L330.817 453.654Z" fill="#39374E"/>
<g id="Vector_100">
<g filter="url(#filter5_i_2_4)">
<path d="M447.801 458.264L457.277 478.539L460.585 485.6L469.492 532.242L473.937 536.965L477.768 520.209L479.568 519.84L512.026 513.118L521.487 543.164C523.619 539.611 524.459 535.431 523.865 531.33C523.271 527.23 521.278 523.46 518.225 520.658C517.579 520.074 517.041 519.505 517.056 518.966C517.595 486.523 515.61 427.283 497.689 402.9C491.997 395.163 488.582 387.456 483.613 382.072C483.598 382.056 483.598 382.041 483.583 382.041L471.491 362.243L470.753 361.027L469.922 360.612L447.801 458.264Z" fill="#39374E"/>
</g>
<path d="M470.269 361.345L470.401 361.41L471.064 362.502L471.065 362.503L483.156 382.302L483.302 382.541H483.365C485.761 385.168 487.802 388.354 489.954 391.865C490.25 392.349 490.549 392.839 490.851 393.334C492.768 396.479 494.814 399.836 497.286 403.197C506.163 415.274 511.13 436.061 513.799 457.971C516.464 479.851 516.825 502.745 516.556 518.955C516.545 519.392 516.756 519.781 516.994 520.096C517.237 520.419 517.563 520.733 517.889 521.028C520.856 523.752 522.792 527.416 523.37 531.402C523.893 535.01 523.274 538.681 521.615 541.906L512.503 512.968L512.367 512.536L511.925 512.628L479.467 519.35L479.466 519.351L477.667 519.72L477.352 519.784L477.28 520.098L473.659 535.939L469.955 532.005L461.076 485.506L461.064 485.445L461.038 485.388L457.73 478.328L457.73 478.327L448.327 458.208L470.269 361.345Z" stroke="black"/>
</g>
<path id="Ellipse 5" d="M390.397 311.759C415.005 311.759 434.955 291.809 434.955 267.201C434.955 242.592 415.005 222.642 390.397 222.642C365.788 222.642 345.838 242.592 345.838 267.201C345.838 291.809 365.788 311.759 390.397 311.759Z" fill="#FFB6B6"/>
<path id="Vector_101" d="M450.622 236.077C450.277 235.708 449.861 235.412 449.398 235.208C448.936 235.003 448.438 234.894 447.932 234.887L448.602 233.027C448.821 232.441 448.88 231.807 448.773 231.191C448.667 230.575 448.398 229.998 447.995 229.52C447.592 229.042 447.069 228.679 446.48 228.47C445.891 228.26 445.257 228.211 444.642 228.327L442.202 228.797L442.432 227.167C442.52 226.56 442.449 225.94 442.225 225.369C442.001 224.798 441.633 224.295 441.155 223.909C440.678 223.524 440.109 223.269 439.503 223.171C438.898 223.072 438.277 223.133 437.702 223.347C437.179 223.553 436.617 223.639 436.056 223.599C435.496 223.559 434.951 223.394 434.462 223.117C433.972 222.848 433.546 222.475 433.214 222.024C432.882 221.573 432.653 221.055 432.542 220.507L431.692 216.407L431.602 216.187C427.462 209.287 419.502 204.267 409.762 202.427C401.092 200.777 392.202 201.617 383.632 202.407C380.232 202.727 376.392 203.087 373.192 205.047C370.472 206.727 368.172 210.087 368.642 213.477C360.192 210.887 351.132 216.057 346.642 222.577C341.322 230.337 340.452 240.057 340.312 247.657C339.932 265.637 343.642 280.347 351.312 291.387C351.872 292.187 352.012 293.857 353.122 294.417L352.892 294.047C354.132 294.667 355.392 295.667 354.922 296.737C353.572 299.817 362.542 306.627 368.862 308.877C380.392 312.987 395.722 312.637 406.502 311.157L406.882 308.607C410.772 308.077 413.512 307.067 414.282 305.487C415.642 304.327 416.802 303.287 417.812 302.327L417.822 302.317C417.842 302.297 417.882 302.267 417.902 302.247C422.772 297.577 423.902 294.917 424.412 290.867C424.902 286.897 424.032 282.867 423.142 279.237C441.882 282.137 415.762 259.277 433.222 254.857C433.422 254.795 433.626 254.745 433.832 254.707C434.342 254.587 434.852 254.467 435.342 254.327C437.704 253.686 439.966 252.72 442.062 251.457C446.942 248.487 448.552 244.547 451.072 240.107C451.436 239.475 451.588 238.743 451.507 238.018C451.426 237.293 451.116 236.613 450.622 236.077V236.077Z" fill="black"/>
<path id="Vector_102" d="M547.992 461.437C547.982 463.187 547.962 465.637 547.882 468.667C547.872 469.087 547.862 469.517 547.852 469.957C547.722 475.527 547.592 480.197 547.382 485.387C547.372 485.747 547.362 486.097 547.342 486.457C547.062 493.697 546.622 502.127 545.862 515.477C544.452 540.137 541.992 518.867 539.522 527.517C539.402 527.947 539.272 528.457 539.152 529.057C538.778 531.234 538.147 533.359 537.272 535.387C535.962 536.167 534.612 536.917 533.282 537.667C529.492 539.777 525.642 541.807 521.762 543.737C519.582 544.817 517.392 545.877 515.192 546.897C514.842 547.057 514.502 547.217 514.162 547.367C502.896 552.578 491.286 557.008 479.412 560.627C477.092 561.327 474.782 562.007 472.442 562.637C470.002 563.317 467.562 563.957 465.092 564.557C446.718 569.068 427.915 571.612 409.002 572.147C406.452 572.227 403.882 572.257 401.302 572.257C400.022 572.257 398.762 572.247 397.482 572.237C397.092 572.237 396.702 572.227 396.312 572.217C395.182 572.187 394.012 572.167 392.832 572.137C370.011 571.425 347.376 567.785 325.482 561.307L324.552 561.037C323.112 560.597 321.682 560.167 320.252 559.707C313.652 557.617 307.149 555.277 300.742 552.687C295.852 550.717 291.019 548.603 286.242 546.347C286.199 546.335 286.158 546.315 286.122 546.287C285.122 545.827 284.112 545.347 283.112 544.857C282.982 544.787 282.842 544.717 282.702 544.647C278.972 542.827 275.282 540.92 271.632 538.927C268.562 531.877 264.242 530.527 261.562 524.327C260.782 522.485 260.219 520.559 259.882 518.587C259.882 518.567 259.872 518.547 259.872 518.517C260.152 522.237 258.682 511.917 259.862 518.477C259.852 518.357 259.842 518.227 259.832 518.077C259.802 517.717 259.762 517.277 259.702 516.727C256.272 483.237 256.492 444.937 255.002 413.377C254.902 411.337 254.799 409.383 254.692 407.517C254.662 406.897 254.622 406.287 254.582 405.687C254.652 405.507 254.732 405.317 254.822 405.137C254.841 405.085 254.865 405.035 254.892 404.987C254.922 404.925 254.955 404.865 254.992 404.807C255.012 404.777 255.042 404.737 255.062 404.707C255.077 404.672 255.094 404.639 255.112 404.607C255.202 404.467 255.302 404.317 255.412 404.177C255.462 404.117 255.502 404.067 255.552 404.017C255.587 403.966 255.627 403.919 255.672 403.877C255.703 403.829 255.74 403.785 255.782 403.747C255.822 403.707 255.862 403.657 255.912 403.607C255.934 403.575 255.961 403.548 255.992 403.527C256.071 403.436 256.158 403.352 256.252 403.277C256.609 402.949 256.99 402.648 257.392 402.377C257.532 402.287 257.682 402.197 257.822 402.097C258.83 401.494 259.891 400.985 260.992 400.577C261.372 400.437 261.752 400.307 262.162 400.167C262.312 400.127 262.452 400.077 262.602 400.027C262.822 399.957 263.042 399.887 263.272 399.837C264.412 399.497 265.642 399.207 266.972 398.937C267.132 398.907 267.302 398.877 267.472 398.837C267.712 398.787 267.962 398.747 268.212 398.707C268.552 398.647 268.902 398.587 269.252 398.527C272.222 398.057 275.592 397.707 279.312 397.477C279.662 397.457 280.012 397.437 280.362 397.417C280.772 397.397 281.182 397.377 281.602 397.357C281.952 397.337 282.312 397.327 282.672 397.317C283.022 397.297 283.382 397.287 283.752 397.277C284.762 397.247 285.802 397.217 286.862 397.197C289.882 397.137 293.062 397.157 296.402 397.227C297.952 397.267 299.532 397.307 301.152 397.377C301.262 397.377 301.362 397.387 301.462 397.387C302.872 397.437 304.292 397.497 305.752 397.577C306.772 397.627 307.802 397.677 308.832 397.737C309.802 397.797 310.782 397.857 311.772 397.927C312.542 397.967 313.312 398.027 314.092 398.077C314.752 398.127 315.412 398.177 316.072 398.217L316.972 398.277C317.462 398.317 317.952 398.347 318.452 398.397C319.552 398.487 320.652 398.577 321.772 398.667C322.882 398.767 324.012 398.867 325.142 398.967C326.272 399.067 327.412 399.177 328.552 399.287C328.672 399.297 328.782 399.307 328.892 399.317C329.932 399.427 330.972 399.527 332.022 399.637C332.262 399.657 332.512 399.677 332.752 399.707C333.753 399.807 334.774 399.925 335.784 400.032C336.094 400.066 336.403 400.098 336.714 400.132C337.505 400.219 338.285 400.293 339.082 400.387C340.132 400.507 341.202 400.617 342.242 400.757C343.052 400.847 343.862 400.937 344.672 401.037C345.942 401.187 347.232 401.347 348.522 401.517C349.012 401.577 349.502 401.637 349.992 401.707C353.672 402.167 357.392 402.677 361.172 403.207C366.902 404.017 372.722 404.897 378.582 405.847C384.452 406.797 390.356 407.8 396.292 408.857C397.792 409.127 399.292 409.397 400.802 409.677C401.482 409.807 402.162 409.937 402.842 410.067C404.002 410.277 405.162 410.497 406.322 410.717C407.482 410.937 408.642 411.157 409.802 411.387C411.182 411.657 412.572 411.927 413.952 412.197C423.042 413.997 432.082 415.917 440.902 417.927C442.352 418.257 443.802 418.597 445.242 418.927C448.122 419.597 450.976 420.277 453.802 420.967C454.582 421.147 455.352 421.337 456.122 421.527C458.042 422.007 459.962 422.487 461.852 422.977L462.182 423.067C463.572 423.407 464.932 423.757 466.292 424.117C469.502 424.957 472.659 425.807 475.762 426.667C477.822 427.237 479.859 427.813 481.872 428.397C484.882 429.267 487.832 430.147 490.702 431.037C491.412 431.257 492.122 431.477 492.822 431.687C494.922 432.337 496.992 432.997 499.002 433.657C500.602 434.177 502.162 434.707 503.702 435.237C505.242 435.767 506.752 436.297 508.232 436.827C509.182 437.167 510.122 437.527 511.062 437.867C512.412 438.367 513.742 438.867 515.042 439.367C515.442 439.517 515.832 439.677 516.222 439.827C516.472 439.937 516.712 440.027 516.952 440.127C517.422 440.317 517.902 440.497 518.362 440.687C518.832 440.867 519.292 441.057 519.752 441.257C520.202 441.437 520.662 441.627 521.102 441.817C521.552 441.997 521.992 442.187 522.432 442.387C522.802 442.537 523.162 442.697 523.512 442.857C524.222 443.167 524.932 443.477 525.622 443.797C525.962 443.957 526.302 444.107 526.642 444.267L527.422 444.627C527.532 444.687 527.642 444.737 527.752 444.787C528.002 444.907 528.262 445.037 528.512 445.157C529.092 445.427 529.662 445.717 530.222 445.987C530.972 446.367 531.702 446.747 532.402 447.117C533.112 447.497 533.802 447.877 534.462 448.247C534.572 448.307 534.672 448.367 534.782 448.427C534.932 448.507 535.082 448.597 535.232 448.677C535.742 448.967 536.232 449.267 536.722 449.557C537.682 450.147 538.592 450.727 539.442 451.307C539.632 451.437 539.812 451.567 540.002 451.687C540.632 452.137 541.232 452.577 541.792 453.027C541.792 453.037 541.792 453.037 541.802 453.037C541.992 453.177 542.172 453.327 542.352 453.467C542.502 453.607 542.662 453.727 542.812 453.867C543.332 454.317 543.812 454.747 544.252 455.187C544.4 455.322 544.54 455.466 544.672 455.617C544.73 455.665 544.784 455.718 544.832 455.777C545.032 455.977 545.212 456.177 545.382 456.377C545.409 456.404 545.432 456.434 545.452 456.467C545.692 456.747 545.912 457.027 546.122 457.307C546.222 457.447 546.332 457.587 546.422 457.727C546.542 457.897 546.662 458.077 546.762 458.247C546.852 458.387 546.932 458.537 547.012 458.677C547.224 459.037 547.405 459.415 547.552 459.807C547.665 460.072 547.755 460.346 547.822 460.627C547.898 460.892 547.955 461.163 547.992 461.437V461.437Z" fill="#2F2E41"/>
<path id="Vector_103" opacity="0.2" d="M547.992 461.437C547.982 463.187 547.962 465.637 547.882 468.667C547.872 469.087 547.852 469.517 547.842 469.957C547.742 474.207 547.592 479.457 547.382 485.387C547.372 485.747 547.362 486.097 547.342 486.457C547.062 493.697 546.622 502.127 545.862 515.477C544.452 540.137 541.992 518.867 539.522 527.517C532.662 523.297 525.142 518.877 517.102 514.337C515.652 513.517 514.189 512.693 512.712 511.867C496.632 502.897 478.672 493.497 459.922 484.187C459.182 483.817 458.432 483.447 457.692 483.087C414.742 461.857 367.862 441.207 329.882 427.427C322.552 424.767 315.552 422.367 308.972 420.257C295.112 415.827 283.132 412.727 273.912 411.387C264.312 409.987 257.682 410.487 255.002 413.377C254.902 411.337 254.799 409.383 254.692 407.517C254.652 406.897 254.612 406.287 254.572 405.687C254.634 405.522 254.714 405.365 254.792 405.207C254.803 405.183 254.811 405.16 254.822 405.137C254.841 405.085 254.865 405.035 254.892 404.987C254.922 404.925 254.955 404.865 254.992 404.807C255.025 404.736 255.065 404.669 255.112 404.607C255.202 404.467 255.302 404.317 255.412 404.177C255.493 404.072 255.58 403.972 255.672 403.877C255.703 403.829 255.74 403.785 255.782 403.747C255.822 403.707 255.862 403.657 255.912 403.607C255.934 403.575 255.961 403.548 255.992 403.527C256.071 403.436 256.158 403.352 256.252 403.277C256.609 402.948 256.99 402.648 257.392 402.377C257.532 402.287 257.682 402.197 257.822 402.097C258.83 401.494 259.891 400.985 260.992 400.577C261.372 400.437 261.752 400.307 262.162 400.167C262.312 400.127 262.452 400.077 262.602 400.027C262.822 399.957 263.042 399.887 263.272 399.837C264.412 399.497 265.642 399.207 266.972 398.937C267.372 398.857 267.792 398.777 268.212 398.707C268.552 398.647 268.902 398.587 269.252 398.527C272.222 398.057 275.592 397.707 279.312 397.477C279.662 397.457 280.012 397.437 280.362 397.417C280.772 397.397 281.182 397.377 281.602 397.357C281.952 397.337 282.312 397.327 282.672 397.317C283.022 397.297 283.382 397.287 283.752 397.277C284.762 397.247 285.802 397.217 286.862 397.197C289.882 397.147 293.062 397.167 296.402 397.237C297.952 397.267 299.532 397.317 301.152 397.387C301.252 397.387 301.362 397.397 301.462 397.397C302.872 397.437 304.302 397.507 305.752 397.577C306.772 397.627 307.802 397.677 308.832 397.737C309.802 397.797 310.782 397.857 311.772 397.927C312.542 397.967 313.312 398.027 314.092 398.077C314.752 398.127 315.412 398.177 316.072 398.217C316.862 398.277 317.652 398.337 318.452 398.397C319.552 398.487 320.652 398.577 321.772 398.667C322.882 398.767 324.012 398.867 325.142 398.967C326.272 399.067 327.412 399.177 328.552 399.287C328.672 399.297 328.782 399.307 328.892 399.317C329.932 399.427 330.972 399.527 332.022 399.637C337.842 400.227 343.832 400.917 349.992 401.707C353.672 402.177 357.399 402.68 361.172 403.217C366.902 404.027 372.722 404.907 378.582 405.847C384.452 406.797 390.356 407.8 396.292 408.857C397.792 409.127 399.292 409.397 400.802 409.677C402.642 410.017 404.482 410.363 406.322 410.717C407.482 410.937 408.642 411.157 409.802 411.387C411.182 411.657 412.572 411.927 413.952 412.197C423.042 413.997 432.082 415.917 440.902 417.927C442.352 418.257 443.802 418.597 445.242 418.927C448.122 419.597 450.976 420.277 453.802 420.967C454.582 421.157 455.352 421.347 456.122 421.537C458.052 422.017 459.962 422.497 461.852 422.977V422.987C461.962 423.007 462.072 423.037 462.182 423.067C463.562 423.417 464.932 423.767 466.292 424.127C469.502 424.967 472.659 425.813 475.762 426.667C477.822 427.247 479.862 427.817 481.872 428.397C484.882 429.277 487.832 430.157 490.702 431.037C491.412 431.257 492.122 431.477 492.822 431.687C494.922 432.347 496.982 433.003 499.002 433.657C500.602 434.177 502.162 434.707 503.702 435.237C505.242 435.767 506.752 436.297 508.232 436.827C509.192 437.167 510.132 437.517 511.062 437.857C512.422 438.357 513.742 438.857 515.042 439.367C515.442 439.517 515.832 439.677 516.222 439.827C516.952 440.107 517.662 440.397 518.362 440.687C518.832 440.867 519.292 441.057 519.752 441.257C520.202 441.437 520.662 441.627 521.102 441.817C521.552 441.997 521.992 442.187 522.432 442.387C522.802 442.537 523.162 442.697 523.512 442.857C524.222 443.167 524.932 443.477 525.622 443.797C525.962 443.957 526.302 444.107 526.642 444.267L527.422 444.627C527.532 444.687 527.642 444.737 527.752 444.787C528.602 445.187 529.422 445.587 530.222 445.987C530.972 446.367 531.702 446.747 532.402 447.117C533.232 447.557 534.022 447.987 534.782 448.427C534.932 448.507 535.082 448.597 535.232 448.677C535.742 448.967 536.232 449.267 536.722 449.557C537.682 450.147 538.592 450.727 539.442 451.307C540.282 451.887 541.062 452.457 541.792 453.027C541.792 453.037 541.792 453.037 541.802 453.037C542.152 453.317 542.492 453.597 542.812 453.867C543.332 454.317 543.812 454.747 544.252 455.187C544.4 455.322 544.54 455.466 544.672 455.617C544.73 455.665 544.784 455.718 544.832 455.777C545.042 456.007 545.252 456.237 545.452 456.467C545.692 456.747 545.912 457.027 546.122 457.307C546.222 457.447 546.332 457.587 546.422 457.727C546.542 457.897 546.662 458.077 546.762 458.247C546.852 458.387 546.932 458.537 547.012 458.677C547.224 459.037 547.405 459.415 547.552 459.807C547.662 460.073 547.752 460.347 547.822 460.627C547.898 460.892 547.955 461.163 547.992 461.437V461.437Z" fill="black"/>
</g>
<defs>
<filter id="filter0_d_2_4" x="-3.05176e-05" y="-4.57764e-05" width="794.82" height="580.258" filterUnits="userSpaceOnUse" color-interpolation-filters="sRGB">
<feFlood flood-opacity="0" result="BackgroundImageFix"/>
<feColorMatrix in="SourceAlpha" type="matrix" values="0 0 0 0 0 0 0 0 0 0 0 0 0 0 0 0 0 0 127 0" result="hardAlpha"/>
<feOffset dy="4"/>
<feGaussianBlur stdDeviation="2"/>
<feComposite in2="hardAlpha" operator="out"/>
<feColorMatrix type="matrix" values="0 0 0 0 0 0 0 0 0 0 0 0 0 0 0 0 0 0 0.25 0"/>
<feBlend mode="normal" in2="BackgroundImageFix" result="effect1_dropShadow_2_4"/>
<feBlend mode="normal" in="SourceGraphic" in2="effect1_dropShadow_2_4" result="shape"/>
</filter>
<filter id="filter1_i_2_4" x="408" y="17" width="53.4015" height="57.4015" filterUnits="userSpaceOnUse" color-interpolation-filters="sRGB">
<feFlood flood-opacity="0" result="BackgroundImageFix"/>
<feBlend mode="normal" in="SourceGraphic" in2="BackgroundImageFix" result="shape"/>
<feColorMatrix in="SourceAlpha" type="matrix" values="0 0 0 0 0 0 0 0 0 0 0 0 0 0 0 0 0 0 127 0" result="hardAlpha"/>
<feOffset dy="4"/>
<feGaussianBlur stdDeviation="2"/>
<feComposite in2="hardAlpha" operator="arithmetic" k2="-1" k3="1"/>
<feColorMatrix type="matrix" values="0 0 0 0 0 0 0 0 0 0 0 0 0 0 0 0 0 0 0.25 0"/>
<feBlend mode="normal" in2="shape" result="effect1_innerShadow_2_4"/>
</filter>
<filter id="filter2_b_2_4" x="174.036" y="-4.00005" width="447.64" height="420.25" filterUnits="userSpaceOnUse" color-interpolation-filters="sRGB">
<feFlood flood-opacity="0" result="BackgroundImageFix"/>
<feGaussianBlur in="BackgroundImage" stdDeviation="2"/>
<feComposite in2="SourceAlpha" operator="in" result="effect1_backgroundBlur_2_4"/>
<feBlend mode="normal" in="SourceGraphic" in2="effect1_backgroundBlur_2_4" result="shape"/>
</filter>
<filter id="filter3_d_2_4" x="-3.05176e-05" y="434.291" width="794.82" height="37.95" filterUnits="userSpaceOnUse" color-interpolation-filters="sRGB">
<feFlood flood-opacity="0" result="BackgroundImageFix"/>
<feColorMatrix in="SourceAlpha" type="matrix" values="0 0 0 0 0 0 0 0 0 0 0 0 0 0 0 0 0 0 127 0" result="hardAlpha"/>
<feOffset dy="4"/>
<feGaussianBlur stdDeviation="2"/>
<feComposite in2="hardAlpha" operator="out"/>
<feColorMatrix type="matrix" values="0 0 0 0 0 0 0 0 0 0 0 0 0 0 0 0 0 0 0.25 0"/>
<feBlend mode="normal" in2="BackgroundImageFix" result="effect1_dropShadow_2_4"/>
<feBlend mode="normal" in="SourceGraphic" in2="effect1_dropShadow_2_4" result="shape"/>
</filter>
<filter id="filter4_i_2_4" x="294.711" y="321.29" width="176.785" height="254.967" filterUnits="userSpaceOnUse" color-interpolation-filters="sRGB">
<feFlood flood-opacity="0" result="BackgroundImageFix"/>
<feBlend mode="normal" in="SourceGraphic" in2="BackgroundImageFix" result="shape"/>
<feColorMatrix in="SourceAlpha" type="matrix" values="0 0 0 0 0 0 0 0 0 0 0 0 0 0 0 0 0 0 127 0" result="hardAlpha"/>
<feOffset dy="4"/>
<feGaussianBlur stdDeviation="2"/>
<feComposite in2="hardAlpha" operator="arithmetic" k2="-1" k3="1"/>
<feColorMatrix type="matrix" values="0 0 0 0 0 0 0 0 0 0 0 0 0 0 0 0 0 0 0.25 0"/>
<feBlend mode="normal" in2="shape" result="effect1_innerShadow_2_4"/>
</filter>
<filter id="filter5_i_2_4" x="447.801" y="360.612" width="76.2493" height="186.552" filterUnits="userSpaceOnUse" color-interpolation-filters="sRGB">
<feFlood flood-opacity="0" result="BackgroundImageFix"/>
<feBlend mode="normal" in="SourceGraphic" in2="BackgroundImageFix" result="shape"/>
<feColorMatrix in="SourceAlpha" type="matrix" values="0 0 0 0 0 0 0 0 0 0 0 0 0 0 0 0 0 0 127 0" result="hardAlpha"/>
<feOffset dy="4"/>
<feGaussianBlur stdDeviation="2"/>
<feComposite in2="hardAlpha" operator="arithmetic" k2="-1" k3="1"/>
<feColorMatrix type="matrix" values="0 0 0 0 0 0 0 0 0 0 0 0 0 0 0 0 0 0 0.25 0"/>
<feBlend mode="normal" in2="shape" result="effect1_innerShadow_2_4"/>
</filter>
</defs>
</svg>
